<svg width="104" height="51" viewBox="0 0 104 51" fill="none" xmlns="http://www.w3.org/2000/svg">
<path d="M24.992 19.896C32.984 20.616 39.248 27.312 39.248 35.376C39.248 44.016 32.264 51 23.624 51H0.152L4.04 46.968V4.632L0.152 0.599997H19.16C25.784 0.599997 30.824 5.136 30.824 11.184C30.824 15.36 28.52 17.664 24.992 19.896ZM8.36 1.104V32.424C9.8 27.744 14.336 25.296 17.72 23.424C22.976 20.544 26.288 15.648 26.288 11.472C26.288 7.512 24.272 1.248 15.632 1.104H8.36ZM34.712 35.376C34.712 27.816 30.464 20.76 24.344 20.256C23.264 20.976 19.664 22.848 18.872 23.28C13.976 25.944 8.432 28.896 8.36 35.376V50.496H23.624C30.68 50.496 34.712 42.648 34.712 35.376ZM41.4958 51L45.3838 46.968V4.632L41.4958 0.599997H70.2238V5.28L49.7038 1.32V20.472L70.2238 20.328V25.008L49.7038 21.192V46.968L53.5918 51H41.4958ZM74.9645 51L78.8525 46.968V4.632L74.9645 0.599997H103.693V5.28L83.1725 1.32V20.472L103.693 20.328V25.008L83.1725 21.192V46.968L87.0605 51H74.9645Z" fill="black"/>
</svg>
