<svg width="93" height="75" viewBox="0 0 93 75" fill="none" xmlns="http://www.w3.org/2000/svg">
<path d="M8.664 6.632C11.328 6.872 13.416 9.104 13.416 11.792C13.416 14.672 11.088 17 8.208 17H0.384L1.68 15.656V1.544L0.384 0.199999H6.72C8.928 0.199999 10.608 1.712 10.608 3.728C10.608 5.12 9.84 5.888 8.664 6.632ZM3.12 0.368V10.808C3.6 9.248 5.112 8.432 6.24 7.808C7.992 6.848 9.096 5.216 9.096 3.824C9.096 2.504 8.424 0.415999 5.544 0.368H3.12ZM11.904 11.792C11.904 9.272 10.488 6.92 8.448 6.752C8.088 6.992 6.888 7.616 6.624 7.76C4.992 8.648 3.144 9.632 3.12 11.792V16.832H8.208C10.56 16.832 11.904 14.216 11.904 11.792ZM22.9013 16.832H28.0373L31.0613 13.736L30.0533 17H20.1653L21.4613 15.656V1.544L20.1653 0.199999H24.1973L22.9013 1.544V16.832ZM37.1747 17L38.4707 15.656L42.9827 2.624V0.199999H43.6547L49.6307 15.656L50.9267 17H46.7747L48.0707 15.656L46.3907 11.168H40.1987L38.6867 15.632L40.0067 17H37.1747ZM40.2707 11H46.3187L43.0787 2.864L40.2707 11ZM57.7697 8.6C57.7697 3.92 61.5857 0.128 66.2417 0.128C68.8337 0.128 71.4017 1.352 73.0337 3.584H70.7297C69.0257 1.76 66.7937 0.775999 64.7057 0.775999C61.5857 0.775999 59.0177 3.296 59.0177 7.016C59.0177 11.792 63.1217 16.4 67.6337 16.4C70.0097 16.4 71.9777 15.08 72.8417 13.04H73.3937C71.9297 15.536 69.1457 17.072 66.2417 17.072C61.5857 17.072 57.7697 13.256 57.7697 8.6ZM92.6402 17H88.8962L89.7362 15.752L85.3202 6.416C83.9762 8.6 83.1122 10.64 83.1122 13.304V15.656L84.4082 17H80.3762L81.6722 15.656V1.544L80.3762 0.199999H84.4082L83.1122 1.544V11.264C83.7602 7.76 86.3282 4.136 89.3762 1.496L88.7042 0.199999H91.9682L89.5682 1.568C88.2242 2.72 87.1442 3.872 86.3282 4.976L91.3922 15.704L92.6402 17ZM0.384 46L1.68 44.656V30.544L0.384 29.2H9.96V30.76L3.12 29.44V35.824L9.96 35.776V37.336L3.12 36.064V44.656L4.416 46H0.384ZM12.2363 46L13.5323 44.656L18.0443 31.624V29.2H18.7163L24.6923 44.656L25.9883 46H21.8363L23.1323 44.656L21.4523 40.168H15.2603L13.7483 44.632L15.0683 46H12.2363ZM15.3323 40H21.3803L18.1403 31.864L15.3323 40ZM32.2553 36.232C35.2313 37.624 37.3673 38.824 37.3673 42.088C37.3673 44.44 35.4713 46 32.9753 46H27.9353L27.3833 42.088L29.8793 44.92C31.0793 45.688 32.1833 45.832 32.9753 45.832C35.1113 45.832 36.9353 44.608 36.9353 42.76C36.9353 40.72 34.1033 39.16 32.1593 38.176C30.4313 37.312 27.6953 35.56 27.6953 32.464C27.6953 30.424 29.3753 29.2 31.3433 29.2H36.2633L36.6953 32.992L34.4153 30.304C33.4793 29.704 32.4473 29.368 31.3913 29.368C29.5673 29.368 28.0553 30.4 28.0553 31.912C28.0553 33.88 30.7193 35.512 32.2553 36.232ZM39.1468 46L40.4428 44.656V30.544L39.1468 29.2H43.1788L41.8828 30.544V36.472H49.6108V30.544L48.3148 29.2H52.3468L51.0508 30.544V44.656L52.3468 46H48.3148L49.6108 44.656V36.64H41.8828V44.656L43.1788 46H39.1468ZM56.8116 30.544V44.656L58.1076 46H54.0756L55.3716 44.656V30.544L54.0756 29.2H58.1076L56.8116 30.544ZM60.2962 37.6C60.2962 32.848 64.1602 29.128 68.7442 29.128C73.3523 29.128 77.1683 32.848 77.1683 37.6C77.1683 42.352 73.3042 46.072 68.7202 46.072C64.1122 46.072 60.2962 42.352 60.2962 37.6ZM61.5442 35.992C61.5442 40.768 65.6002 45.4 70.1602 45.4C73.6642 45.4 75.9203 42.64 75.9203 39.208C75.9203 34.432 71.8642 29.8 67.3042 29.8C63.8002 29.8 61.5442 32.56 61.5442 35.992ZM91.3148 29.2L90.0188 30.544V44.656L91.3148 46H88.6028L89.8508 44.656L80.8268 30.88V44.656L82.1228 46H79.3628L80.6588 44.656V30.712L79.5788 29.2H81.4988L89.8508 41.776V30.544L88.5548 29.2H91.3148ZM0.384 75L1.68 73.656V59.544L0.384 58.2H9.96V59.76L3.12 58.44V64.824L9.96 64.776V66.336L3.12 65.064V73.656L4.416 75H0.384ZM28.0762 75L29.3722 73.656L33.8842 60.624V58.2H34.5562L40.5323 73.656L41.8282 75H37.6762L38.9722 73.656L37.2922 69.168H31.1002L29.5882 73.632L30.9082 75H28.0762ZM31.1722 69H37.2202L33.9802 60.864L31.1722 69ZM61.7512 59.544V73.656L63.0472 75H59.0152L60.3112 73.656V59.544L59.0152 58.2H63.0472L61.7512 59.544ZM87.6999 65.352L91.7079 73.776L92.8119 75H89.1639L90.1479 73.944L86.4759 66C84.9879 66.816 83.4519 67.776 83.3559 69.624V73.656L84.6519 75H80.6199L81.9159 73.656V59.544L80.6199 58.2H87.0519C89.2599 58.2 90.9159 59.712 90.9159 61.728C90.9159 63.552 89.5719 64.32 87.6999 65.352ZM86.6919 65.688C88.3719 64.752 89.4519 63.168 89.4519 61.8C89.4519 60.432 88.9479 58.44 85.7079 58.368H83.3559V68.808C83.8599 67.248 85.2279 66.504 86.6919 65.688Z" fill="black"/>
</svg>
