<svg width="20" height="20" viewBox="0 0 20 20" fill="none" xmlns="http://www.w3.org/2000/svg">
<path d="M17.0719 2.92798C15.1837 1.03896 12.6701 0 10 0C7.32995 0 4.82017 1.03896 2.93198 2.92798C1.03987 4.817 0 7.32782 0 10C0 12.6722 1.03987 15.183 2.93198 17.072C4.82017 18.9571 7.32995 20 10 20C12.6701 20 15.1798 18.961 17.068 17.072C18.9601 15.183 20 12.6722 20 10C20 7.32782 18.9601 4.817 17.0719 2.92798ZM17.803 6.78867H14.093C14.0891 6.77686 14.0891 6.76505 14.0852 6.75325C13.7256 4.79732 13.1978 3.1523 12.7873 2.04644C15.0586 2.8414 16.8882 4.58087 17.803 6.78867ZM8.87021 1.65289C9.2416 1.60173 9.61689 1.57812 10 1.57812C10.3167 1.57812 10.6255 1.5978 10.9304 1.62928C11.2666 2.41244 12.0211 4.34081 12.498 6.78867H7.65833C8.0649 4.06533 8.74121 2.0307 8.87021 1.65289ZM1.56372 10C1.56372 9.44116 1.61845 8.89414 1.724 8.36285H5.89523C5.75059 9.94097 5.73886 11.4601 5.86005 12.8886H2.07584C1.74355 11.9874 1.56372 11.0153 1.56372 10ZM2.84988 14.4628H6.05551C6.25098 15.6631 6.54418 16.7965 6.94292 17.8473C5.24238 17.1861 3.80766 15.9858 2.84988 14.4628ZM6.07897 6.78867H2.20094C3.10008 4.62023 4.87881 2.9083 7.08757 2.09366C6.79437 3.10114 6.36435 4.76584 6.07897 6.78867ZM11.1259 18.3471C10.7584 18.3943 10.3831 18.4219 10.0039 18.4219C9.61298 18.4219 9.22987 18.3943 8.85067 18.3432C8.25645 17.0996 7.87334 15.7812 7.6466 14.4628H12.5762C12.2987 15.7733 11.8374 17.0917 11.1259 18.3471ZM12.8186 12.8886H7.4355C7.29085 11.279 7.33776 9.72452 7.46677 8.36285H12.7522C12.9242 9.72845 12.9906 11.283 12.8186 12.8886ZM13.1392 17.8198C13.6005 16.769 13.9484 15.6474 14.1712 14.4628H17.154C16.2119 15.9662 14.8045 17.1507 13.1392 17.8198ZM14.398 12.8886L14.4097 12.747C14.5348 11.3538 14.5074 9.88194 14.3276 8.36285H18.2799C18.3855 8.89414 18.4402 9.44116 18.4402 10C18.4402 11.0153 18.2604 11.9874 17.9281 12.8886H14.398Z" fill="black"/>
</svg>
